<svg width="50" height="50" viewBox="0 0 50 50" fill="none" xmlns="http://www.w3.org/2000/svg">
<circle cx="25" cy="25" r="25" fill="#00BCE8"/>
<path d="M32.8633 24.0273C33.4889 24.0273 33.9961 23.5202 33.9961 22.8945C33.9961 22.2689 33.4889 21.7617 32.8633 21.7617C32.2376 21.7617 31.7305 22.2689 31.7305 22.8945C31.7305 23.5202 32.2376 24.0273 32.8633 24.0273Z" fill="white"/>
<path d="M35.4688 13.2656H33.9961V12.1328C33.9961 11.5072 33.4889 11 32.8633 11C32.2376 11 31.7305 11.5072 31.7305 12.1328V13.2656H26.5762V12.1328C26.5762 11.5072 26.069 11 25.4434 11C24.8177 11 24.3105 11.5072 24.3105 12.1328V13.2656H19.2129V12.1328C19.2129 11.5072 18.7057 11 18.0801 11C17.4544 11 16.9473 11.5072 16.9473 12.1328V13.2656H15.5312C13.0327 13.2656 11 15.2983 11 17.7969V35.4688C11 37.9673 13.0327 40 15.5312 40H24.1973C24.8229 40 25.3301 39.4928 25.3301 38.8672C25.3301 38.2415 24.8229 37.7344 24.1973 37.7344H15.5312C14.282 37.7344 13.2656 36.718 13.2656 35.4688V17.7969C13.2656 16.5476 14.282 15.5312 15.5312 15.5312H16.9473V16.6641C16.9473 17.2897 17.4544 17.7969 18.0801 17.7969C18.7057 17.7969 19.2129 17.2897 19.2129 16.6641V15.5312H24.3105V16.6641C24.3105 17.2897 24.8177 17.7969 25.4434 17.7969C26.069 17.7969 26.5762 17.2897 26.5762 16.6641V15.5312H31.7305V16.6641C31.7305 17.2897 32.2376 17.7969 32.8633 17.7969C33.4889 17.7969 33.9961 17.2897 33.9961 16.6641V15.5312H35.4688C36.718 15.5312 37.7344 16.5476 37.7344 17.7969V24.2539C37.7344 24.8796 38.2415 25.3867 38.8672 25.3867C39.4928 25.3867 40 24.8796 40 24.2539V17.7969C40 15.2983 37.9673 13.2656 35.4688 13.2656Z" fill="white"/>
<path d="M33.1465 26.293C29.3674 26.293 26.293 29.3674 26.293 33.1465C26.293 36.9255 29.3674 40 33.1465 40C36.9255 40 40 36.9255 40 33.1465C40 29.3674 36.9255 26.293 33.1465 26.293ZM33.1465 37.7344C30.6167 37.7344 28.5586 35.6763 28.5586 33.1465C28.5586 30.6167 30.6167 28.5586 33.1465 28.5586C35.6762 28.5586 37.7344 30.6167 37.7344 33.1465C37.7344 35.6763 35.6762 37.7344 33.1465 37.7344Z" fill="white"/>
<path d="M34.7891 32.0137H34.2793V30.8242C34.2793 30.1986 33.7721 29.6914 33.1465 29.6914C32.5208 29.6914 32.0137 30.1986 32.0137 30.8242V33.1465C32.0137 33.7721 32.5208 34.2793 33.1465 34.2793H34.7891C35.4147 34.2793 35.9219 33.7721 35.9219 33.1465C35.9219 32.5208 35.4147 32.0137 34.7891 32.0137Z" fill="white"/>
<path d="M27.9355 24.0273C28.5612 24.0273 29.0684 23.5202 29.0684 22.8945C29.0684 22.2689 28.5612 21.7617 27.9355 21.7617C27.3099 21.7617 26.8027 22.2689 26.8027 22.8945C26.8027 23.5202 27.3099 24.0273 27.9355 24.0273Z" fill="white"/>
<path d="M23.0078 28.9551C23.6334 28.9551 24.1406 28.4479 24.1406 27.8223C24.1406 27.1966 23.6334 26.6895 23.0078 26.6895C22.3822 26.6895 21.875 27.1966 21.875 27.8223C21.875 28.4479 22.3822 28.9551 23.0078 28.9551Z" fill="white"/>
<path d="M18.0801 24.0273C18.7057 24.0273 19.2129 23.5202 19.2129 22.8945C19.2129 22.2689 18.7057 21.7617 18.0801 21.7617C17.4544 21.7617 16.9473 22.2689 16.9473 22.8945C16.9473 23.5202 17.4544 24.0273 18.0801 24.0273Z" fill="white"/>
<path d="M18.0801 28.9551C18.7057 28.9551 19.2129 28.4479 19.2129 27.8223C19.2129 27.1966 18.7057 26.6895 18.0801 26.6895C17.4544 26.6895 16.9473 27.1966 16.9473 27.8223C16.9473 28.4479 17.4544 28.9551 18.0801 28.9551Z" fill="white"/>
<path d="M18.0801 33.8828C18.7057 33.8828 19.2129 33.3756 19.2129 32.75C19.2129 32.1244 18.7057 31.6172 18.0801 31.6172C17.4544 31.6172 16.9473 32.1244 16.9473 32.75C16.9473 33.3756 17.4544 33.8828 18.0801 33.8828Z" fill="white"/>
<path d="M23.0078 33.8828C23.6334 33.8828 24.1406 33.3756 24.1406 32.75C24.1406 32.1244 23.6334 31.6172 23.0078 31.6172C22.3822 31.6172 21.875 32.1244 21.875 32.75C21.875 33.3756 22.3822 33.8828 23.0078 33.8828Z" fill="white"/>
<path d="M23.0078 24.0273C23.6334 24.0273 24.1406 23.5202 24.1406 22.8945C24.1406 22.2689 23.6334 21.7617 23.0078 21.7617C22.3822 21.7617 21.875 22.2689 21.875 22.8945C21.875 23.5202 22.3822 24.0273 23.0078 24.0273Z" fill="white"/>
</svg>
