<svg width="50" height="50" viewBox="0 0 50 50" fill="none" xmlns="http://www.w3.org/2000/svg">
<circle cx="25" cy="25" r="25" fill="#00BCE8"/>
<path d="M33.5779 13.0616H30.7734V11.8069C30.7734 11.401 30.3306 11.2165 29.9247 11.2165H27.7475C27.2309 9.74044 25.9393 9.0024 24.4632 9.0024C23.0034 8.94752 21.6756 9.84265 21.1789 11.2165H19.0386C18.6327 11.2165 18.2268 11.401 18.2268 11.8069V13.0616H15.4222C13.7602 13.0793 12.4005 14.3904 12.3224 16.0506V37.1954C12.3224 38.8191 13.7985 39.9999 15.4222 39.9999H33.5779C35.2016 39.9999 36.6777 38.8191 36.6777 37.1954V16.0507C36.5996 14.3904 35.2399 13.0793 33.5779 13.0616ZM19.7028 12.6926H21.7324C22.0867 12.6494 22.3713 12.3798 22.4336 12.0284C22.6521 11.0767 23.4871 10.3935 24.4632 10.3678C25.4303 10.3971 26.2527 11.0824 26.4559 12.0284C26.5221 12.392 26.8254 12.665 27.1939 12.6926H29.2974V15.6448H19.7028V12.6926ZM35.2016 37.1955C35.2016 38.0073 34.3898 38.5239 33.5779 38.5239H15.4222C14.6103 38.5239 13.7985 38.0073 13.7985 37.1955V16.0507C13.8738 15.2056 14.5739 14.5532 15.4222 14.5377H18.2267V16.4197C18.2657 16.8332 18.6238 17.1425 19.0386 17.1209H29.9246C30.347 17.144 30.7163 16.8389 30.7733 16.4197V14.5377H33.5778C34.4261 14.5532 35.1263 15.2056 35.2015 16.0506V37.1955H35.2016Z" fill="white"/>
<path d="M21.6586 25.4976C21.3818 25.2058 20.9223 25.1893 20.6253 25.4607L18.2636 27.7117L17.2673 26.6784C16.9905 26.3866 16.5309 26.3702 16.234 26.6415C15.9481 26.941 15.9481 27.4122 16.234 27.7117L17.7469 29.2616C17.8779 29.4082 18.067 29.4893 18.2635 29.483C18.4582 29.4803 18.6439 29.4007 18.7801 29.2616L21.6585 26.5309C21.9438 26.2691 21.9629 25.8255 21.7011 25.5402C21.6877 25.5253 21.6735 25.5111 21.6586 25.4976Z" fill="white"/>
<path d="M32.2494 27.0843H23.762C23.3544 27.0843 23.024 27.4148 23.024 27.8224C23.024 28.23 23.3544 28.5604 23.762 28.5604H32.2494C32.6571 28.5604 32.9875 28.23 32.9875 27.8224C32.9875 27.4148 32.6571 27.0843 32.2494 27.0843Z" fill="white"/>
<path d="M21.6586 19.5933C21.3818 19.3015 20.9223 19.285 20.6253 19.5564L18.2636 21.8074L17.2673 20.7741C16.9905 20.4823 16.5309 20.4659 16.234 20.7372C15.9481 21.0367 15.9481 21.5079 16.234 21.8074L17.7469 23.3573C17.8779 23.5039 18.067 23.585 18.2635 23.5787C18.4582 23.576 18.6439 23.4963 18.7801 23.3573L21.6585 20.6265C21.9438 20.3648 21.9629 19.9212 21.7011 19.6359C21.6877 19.621 21.6735 19.6068 21.6586 19.5933Z" fill="white"/>
<path d="M32.2494 21.18H23.762C23.3544 21.18 23.024 21.5104 23.024 21.9181C23.024 22.3257 23.3544 22.6561 23.762 22.6561H32.2494C32.6571 22.6561 32.9875 22.3257 32.9875 21.9181C32.9875 21.5104 32.6571 21.18 32.2494 21.18Z" fill="white"/>
<path d="M21.6586 31.4018C21.3818 31.11 20.9223 31.0937 20.6253 31.365L18.2636 33.6159L17.2673 32.5827C16.9905 32.2909 16.5309 32.2745 16.234 32.5458C15.9481 32.8453 15.9481 33.3165 16.234 33.6159L17.7469 35.1658C17.8779 35.3125 18.067 35.3936 18.2635 35.3873C18.4582 35.3845 18.6439 35.3049 18.7801 35.1658L21.6585 32.4351C21.9438 32.1733 21.9629 31.7298 21.7011 31.4445C21.6877 31.4297 21.6735 31.4155 21.6586 31.4018Z" fill="white"/>
<path d="M32.2494 32.9887H23.762C23.3544 32.9887 23.024 33.3191 23.024 33.7267C23.024 34.1343 23.3544 34.4647 23.762 34.4647H32.2494C32.6571 34.4647 32.9875 34.1343 32.9875 33.7267C32.9875 33.3191 32.6571 32.9887 32.2494 32.9887Z" fill="white"/>
</svg>
